<svg xmlns="http://www.w3.org/2000/svg" xmlns:xlink="http://www.w3.org/1999/xlink" width="80" height="744" viewBox="0 0 80 744"><svg viewBox="194.5 384.5 25 25" enable-background="new 194.5 384.5 25 25" width="25" height="25" id="btn-arrow-down" y="0"><path d="M219.5 397c0-6.9-5.6-12.5-12.5-12.5s-12.5 5.6-12.5 12.5 5.6 12.5 12.5 12.5 12.5-5.6 12.5-12.5zm-20.6-1.7l2.2-2.2 6 5.9 6-5.9 2.2 2.2-8.1 8.1-8.3-8.1z"/></svg><svg viewBox="194.5 384.5 25 25" enable-background="new 194.5 384.5 25 25" width="25" height="25" id="btn-arrow-left" y="25"><path d="M207 409.5c6.9 0 12.5-5.6 12.5-12.5s-5.6-12.5-12.5-12.5-12.5 5.6-12.5 12.5 5.6 12.5 12.5 12.5zm1.7-20.6l2.2 2.2-5.9 6 5.9 6-2.2 2.2-8.1-8.1 8.1-8.3z"/></svg><svg viewBox="194.5 384.5 25 25" enable-background="new 194.5 384.5 25 25" width="25" height="25" id="btn-arrow-right" y="50"><path d="M207 384.5c-6.9 0-12.5 5.6-12.5 12.5s5.6 12.5 12.5 12.5 12.5-5.6 12.5-12.5-5.6-12.5-12.5-12.5zm-1.7 20.6l-2.2-2.2 5.9-6-5.9-6 2.2-2.2 8.1 8.1-8.1 8.3z"/></svg><svg viewBox="194.5 384.5 25 25" enable-background="new 194.5 384.5 25 25" width="25" height="25" id="btn-arrow-up" y="75"><path d="M194.5 397c0 6.9 5.6 12.5 12.5 12.5s12.5-5.6 12.5-12.5-5.6-12.5-12.5-12.5-12.5 5.6-12.5 12.5zm20.6 1.7l-2.2 2.2-6-5.9-6 5.9-2.2-2.2 8.1-8.1 8.3 8.1z"/></svg><svg width="19" height="25" viewBox="0 0 19 25" id="btn-cart" y="100"><path d="M1029 43h-19V24.732h19V43zm-17.35-1.584h15.7v-15.1h-15.7v15.1zm11.53-10.27a.81.81 0 0 1-.83-.79v-8.027a2.857 2.857 0 0 0-5.71 0v8.025a.82.82 0 0 1-1.64 0V22.33a4.5 4.5 0 0 1 9 0v8.025a.808.808 0 0 1-.82.792z" transform="translate(-1010 -18)"/></svg><svg viewBox="293.5 383.5 25 25" enable-background="new 293.5 383.5 25 25" width="25" height="25" id="btn-close" y="125"><path d="M306 383.5c-6.9 0-12.5 5.6-12.5 12.5s5.6 12.5 12.5 12.5 12.5-5.6 12.5-12.5-5.6-12.5-12.5-12.5zm6.1 16.9l-1.8 1.8-4.4-4.4-4.4 4.4-1.8-1.8 4.4-4.4-4.4-4.4 1.8-1.8 4.4 4.4 4.4-4.4 1.8 1.8-4.4 4.4 4.4 4.4z"/></svg><svg viewBox="0 0 34 35" enable-background="new 0 0 34 35" width="34" height="35" id="btn-menu" y="150"><g><path d="M29 12.6H5V8.8h24v3.8zm-7.5 3.5H5v3.8h16.5v-3.8zm7.5 7.3H5v3.8h24v-3.8zM22.9 16.1l3.1 3.8 3-3.8z"/></g></svg><svg viewBox="0 0 34 35" enable-background="new 0 0 34 35" width="34" height="35" id="btn-menu-close" y="185"><path d="M26.3 24l-6.1-6 6-6L23 8.8l-6 6-6-6L7.8 12l6 6-6 6 3.2 3.3 6-6.1 6 6z"/></svg><svg viewBox="198 387.9 18 18.1" enable-background="new 198 387.9 18 18.1" width="18" height="18.1" id="btn-search" y="220"><path d="M209.1 401.8c3.8 0 6.9-3.1 6.9-6.9s-3.1-6.9-6.9-6.9-6.9 3.1-6.9 6.9 3.1 6.9 6.9 6.9zm0-11.5c2.5 0 4.5 2 4.5 4.5s-2 4.5-4.5 4.5-4.5-2-4.5-4.5c-.1-2.5 2-4.5 4.5-4.5zm-7 9.4c.6.9 1.4 1.7 2.3 2.3l-4.1 4.1-2.3-2.3 4.1-4.1z"/></svg><svg width="15" height="22" viewBox="0 0 15 22" id="btn-user" y="239"><path d="M14.31 22.01H.7c-.38 0-.7-.33-.7-.72V16.7c0-3.15 2.52-5.72 5.56-5.72h3.89c3.05 0 5.54 2.57 5.54 5.72v4.7c-.05.34-.34.61-.68.61zM7.5 9.29C5.02 9.29 3 7.21 3 4.64 3 2.07 5.02-.01 7.5-.01s4.49 2.08 4.49 4.65c0 2.57-2.01 4.65-4.49 4.65z"/></svg><svg viewBox="293.6 392.7 20 20" enable-background="new 293.6 392.7 20 20" width="20" height="20" id="cb-close" y="261"><path fill="#fff" d="M312.9 392.7l-9.3 9.4-9.4-9.4-.6.7 9.3 9.3-9.3 9.4.6.6 9.4-9.3 9.3 9.3.7-.6-9.4-9.4 9.4-9.3z"/></svg><svg viewBox="321.8 377.6 19.1 36.7" enable-background="new 321.8 377.6 19.1 36.7" width="19.1" height="36.7" id="cb-next" y="281"><path stroke="#fff" stroke-miterlimit="10" fill="none" d="M322.5 378l18 18-18 18"/></svg><svg viewBox="321.8 377.6 19.1 36.7" enable-background="new 321.8 377.6 19.1 36.7" width="19.1" height="36.7" id="cb-prev" y="318"><path stroke="#fff" stroke-miterlimit="10" fill="none" d="M340.5 414l-18-18 18-18"/></svg><svg viewBox="298 313 20.3 31" enable-background="new 298 313 20.3 31" width="20.3" height="31" id="facebook" y="355"><path fill="#828282" d="M304.1 323.2H301v5.3h3.2V344h6.2v-15.6h4.4l.5-5.2h-4.8v-2.9c0-1.2.3-1.7 1.5-1.7h3.3V313h-4.4c-4.6 0-6.8 2-6.8 6v4.2z"/></svg><svg viewBox="298 313 20.3 31" enable-background="new 298 313 20.3 31" width="20.3" height="31" id="facebook-share" y="386"><path fill="#ccc" d="M304.1 323.2H301v5.3h3.2V344h6.2v-15.6h4.4l.5-5.2h-4.8v-2.9c0-1.2.3-1.7 1.5-1.7h3.3V313h-4.4c-4.6 0-6.8 2-6.8 6v4.2z"/></svg><svg viewBox="294.4 378.9 37.7 31" enable-background="new 294.4 378.9 37.7 31" width="37.7" height="31" id="googleplus" y="417"><path fill="#828282" d="M329.1 385.6h-4.2v4.2h-2.1v-4.2h-4.2v-2.1h4.2v-4.2h2.1v4.2h4.2v2.1zm-11.8 17.3c0 3.2-2.9 7-10.1 7-5.3 0-9.7-2.2-9.7-6 0-2.9 1.8-6.8 10.6-6.8-1.3-1.1-1.6-2.5-.8-4.2-5.1 0-7.8-3-7.8-6.8 0-3.7 2.8-7.1 8.4-7.1h9.1l-2 2.1h-2.4c1.7.9 2.6 2.9 2.6 5.1 0 2-1.1 3.7-2.6 4.9-2.8 2.1-2.1 3.4.8 5.5 2.9 2.1 3.9 3.7 3.9 6.3zm-5.7-16.7c-.4-3.2-2.5-5.9-5-5.9-2.5-.1-4.1 2.4-3.7 5.6.4 3.2 2.8 5.5 5.3 5.5 2.4.1 3.8-1.9 3.4-5.2zm2.5 17c0-2.6-2.4-5.1-6.4-5.1-3.7 0-6.7 2.4-6.7 5 0 2.8 2.6 5.1 6.3 5.1 4.6 0 6.8-2.3 6.8-5z"/></svg><svg viewBox="294.4 378.9 37.7 31" enable-background="new 294.4 378.9 37.7 31" width="37.7" height="31" id="googleplus-share" y="448"><path fill="#ccc" d="M329.1 385.6h-4.2v4.2h-2.1v-4.2h-4.2v-2.1h4.2v-4.2h2.1v4.2h4.2v2.1zm-11.8 17.3c0 3.2-2.9 7-10.1 7-5.3 0-9.7-2.2-9.7-6 0-2.9 1.8-6.8 10.6-6.8-1.3-1.1-1.6-2.5-.8-4.2-5.1 0-7.8-3-7.8-6.8 0-3.7 2.8-7.1 8.4-7.1h9.1l-2 2.1h-2.4c1.7.9 2.6 2.9 2.6 5.1 0 2-1.1 3.7-2.6 4.9-2.8 2.1-2.1 3.4.8 5.5 2.9 2.1 3.9 3.7 3.9 6.3zm-5.7-16.7c-.4-3.2-2.5-5.9-5-5.9-2.5-.1-4.1 2.4-3.7 5.6.4 3.2 2.8 5.5 5.3 5.5 2.4.1 3.8-1.9 3.4-5.2zm2.5 17c0-2.6-2.4-5.1-6.4-5.1-3.7 0-6.7 2.4-6.7 5 0 2.8 2.6 5.1 6.3 5.1 4.6 0 6.8-2.3 6.8-5z"/></svg><svg viewBox="286.6 329.2 37.1 31" enable-background="new 286.6 329.2 37.1 31" width="37.1" height="31" id="linkedin" y="479"><path fill="#828282" d="M297.3 333c0 2.2-1.8 3.8-3.8 3.8-2 0-3.9-1.8-3.9-3.8 0-2.2 1.8-3.8 3.8-3.8 2.1-.1 3.9 1.6 3.9 3.8zm-.5 6.4h-6.5v20.8h6.5v-20.8zm10.2 0h-6.2v20.8h6.2v-10.9c0-3 1.3-4.7 3.9-4.7 2.4 0 3.5 1.6 3.5 4.7v10.9h6.3V347s-3.1-8.2-7.5-8.2-6.2 3.4-6.2 3.4v-2.8z"/></svg><svg viewBox="286.6 329.2 37.1 31" enable-background="new 286.6 329.2 37.1 31" width="37.1" height="31" id="linkedin-share" y="510"><path fill="#ccc" d="M297.3 333c0 2.2-1.8 3.8-3.8 3.8-2 0-3.9-1.8-3.9-3.8 0-2.2 1.8-3.8 3.8-3.8 2.1-.1 3.9 1.6 3.9 3.8zm-.5 6.4h-6.5v20.8h6.5v-20.8zm10.2 0h-6.2v20.8h6.2v-10.9c0-3 1.3-4.7 3.9-4.7 2.4 0 3.5 1.6 3.5 4.7v10.9h6.3V347s-3.1-8.2-7.5-8.2-6.2 3.4-6.2 3.4v-2.8z"/></svg><svg viewBox="291.9 370.3 30.1 31" enable-background="new 291.9 370.3 30.1 31" width="30.1" height="31" id="pinterest" y="541"><style type="text/css" media="screen"/><path fill="#828282" id="upinterest" d="M307.6 370.3c-8.4 0-12.7 6-12.7 11.1 0 3.1 1.1 5.8 3.7 6.7.5.1.8 0 .9-.5.1-.3.2-1.1.3-1.4.1-.5.1-.6-.2-1-.7-.8-1.1-1.9-1.1-3.5-.1-4.5 3.3-8.4 8.7-8.4 4.8 0 7.4 3 7.4 6.8 0 5.1-2.3 9.5-5.6 9.5-1.8 0-3.2-1.5-2.9-3.4.6-2.3 1.6-4.7 1.6-6.3 0-1.5-.8-2.6-2.4-2.6-1.9 0-3.4 1.9-3.4 4.6 0 1.7.6 2.9.6 2.9s-1.9 8.2-2.3 9.7c-.7 2.9-.1 6.4 0 6.7 0 .2.3.2.5.1.2-.2 2.4-3 3.2-5.8.2-.8 1.3-4.9 1.3-4.9.6 1.1 2.4 2.2 4.3 2.2 5.7 0 9.6-5.2 9.6-12.2-.2-5.4-4.6-10.3-11.5-10.3z"/></svg><svg viewBox="291.9 370.3 30.1 31" enable-background="new 291.9 370.3 30.1 31" width="30.1" height="31" id="pinterest-share" y="572"><style type="text/css" media="screen"/><path fill="#ccc" id="tpinterest-share" d="M307.6 370.3c-8.4 0-12.7 6-12.7 11.1 0 3.1 1.1 5.8 3.7 6.7.5.1.8 0 .9-.5.1-.3.2-1.1.3-1.4.1-.5.1-.6-.2-1-.7-.8-1.1-1.9-1.1-3.5-.1-4.5 3.3-8.4 8.7-8.4 4.8 0 7.4 3 7.4 6.8 0 5.1-2.3 9.5-5.6 9.5-1.8 0-3.2-1.5-2.9-3.4.6-2.3 1.6-4.7 1.6-6.3 0-1.5-.8-2.6-2.4-2.6-1.9 0-3.4 1.9-3.4 4.6 0 1.7.6 2.9.6 2.9s-1.9 8.2-2.3 9.7c-.7 2.9-.1 6.4 0 6.7 0 .2.3.2.5.1.2-.2 2.4-3 3.2-5.8.2-.8 1.3-4.9 1.3-4.9.6 1.1 2.4 2.2 4.3 2.2 5.7 0 9.6-5.2 9.6-12.2-.2-5.4-4.6-10.3-11.5-10.3z"/></svg><svg viewBox="0 0 80 17" enable-background="new 0 0 80 17" width="80" height="17" id="theaim" y="603"><path fill="#888" d="M7.543 15.75c0 .22-.016.393-.05.523s-.082.225-.15.285c-.067.062-.168.122-.3.172-.136.054-.29.097-.46.13-.17.032-.353.062-.546.085-.194.023-.385.035-.58.035-.586 0-1.088-.068-1.507-.21-.42-.142-.763-.355-1.03-.64-.27-.287-.464-.648-.584-1.083-.123-.438-.183-.954-.183-1.546v-6H.568c-.127 0-.227-.06-.3-.182C.19 7.196.152 7 .152 6.726c0-.146.01-.266.03-.365.024-.098.05-.18.084-.245.033-.066.077-.11.133-.137.054-.025.115-.04.18-.04h1.572V3.5c0-.054.014-.105.044-.15s.083-.085.163-.12c.08-.034.185-.058.32-.074.134-.015.3-.022.502-.022.21 0 .38.007.516.022.134.016.24.04.315.074.074.034.128.075.163.12.034.046.05.096.05.15v2.44H7.13c.065 0 .124.014.174.04.05.027.094.072.133.138.038.064.065.146.082.244.016.1.023.22.023.365 0 .274-.038.47-.113.593-.075.122-.176.183-.3.183H4.225v5.727c0 .707.115 1.242.346 1.604.23.36.642.544 1.238.544.192 0 .363-.02.515-.052.15-.034.284-.07.402-.11.118-.036.218-.073.3-.108.084-.033.16-.05.227-.05.043 0 .082.01.12.028.038.016.067.054.088.107.02.052.04.122.057.217.015.09.023.206.023.342z"/><path fill="#888" d="M18.49 16.503c0 .062-.018.11-.05.15-.035.044-.09.08-.164.11-.076.03-.18.053-.313.067-.135.014-.303.02-.504.02-.21 0-.382-.007-.516-.02-.134-.015-.24-.036-.314-.067-.076-.03-.13-.066-.164-.11-.033-.04-.05-.09-.05-.15V10.49c0-.586-.05-1.06-.15-1.414-.1-.357-.248-.665-.44-.925-.192-.258-.442-.456-.748-.59-.307-.138-.66-.207-1.063-.207-.52 0-1.04.168-1.558.502-.52.335-1.063.824-1.632 1.473v7.176c0 .06-.018.11-.05.15-.035.044-.09.08-.164.11-.074.03-.18.054-.313.067-.134.015-.305.022-.517.022-.2 0-.367-.01-.502-.02-.133-.017-.24-.037-.32-.07-.08-.028-.132-.064-.163-.108-.03-.04-.043-.09-.043-.15V1.26c0-.06.014-.112.043-.158.03-.046.084-.083.164-.113.078-.033.185-.055.318-.07.135-.016.303-.023.502-.023.21 0 .383.007.517.022s.24.038.314.07c.077.03.13.066.164.112.033.046.05.1.05.16v6.147c.595-.57 1.194-.995 1.797-1.272.605-.28 1.212-.417 1.825-.417.753 0 1.388.117 1.903.35.512.23.93.54 1.25.93.317.387.545.84.683 1.36.14.524.21 1.152.21 1.89v6.253z"/><path fill="#888" d="M30.282 10.923c0 .295-.083.51-.248.634-.163.125-.35.188-.56.188h-7.45c0 .567.064 1.083.19 1.54.126.455.336.85.63 1.176.295.325.678.577 1.15.75.474.18 1.05.267 1.73.267.54 0 1.02-.04 1.44-.12.422-.08.785-.17 1.093-.27.308-.1.56-.188.76-.267.197-.08.347-.122.448-.122.058 0 .11.015.158.042.046.025.08.064.107.117.025.055.043.13.056.225.013.095.02.21.02.348 0 .1-.006.184-.013.256-.01.07-.02.138-.03.192-.013.058-.035.11-.063.155-.03.047-.067.09-.114.13-.046.043-.18.11-.41.206-.225.095-.518.188-.878.278-.36.094-.777.174-1.25.244-.473.073-.98.11-1.514.11-.93 0-1.745-.118-2.444-.355-.7-.234-1.29-.586-1.766-1.05-.478-.464-.838-1.047-1.082-1.745-.243-.698-.364-1.514-.364-2.44 0-.882.126-1.674.377-2.377.25-.704.613-1.3 1.086-1.793.474-.49 1.047-.866 1.716-1.128.67-.264 1.42-.394 2.25-.394.89 0 1.643.13 2.27.39.623.257 1.136.605 1.538 1.043.4.437.698.952.886 1.542.188.59.283 1.216.283 1.887v.34zm-2.087-.558c.025-.99-.217-1.767-.727-2.33-.51-.56-1.267-.843-2.27-.843-.516 0-.966.088-1.354.264-.387.175-.71.406-.973.695-.26.29-.464.627-.607 1.01-.143.385-.223.785-.24 1.205h6.172z"/><path fill="#888" d="M54.275 16.307c0 .084-.027.158-.084.226-.06.067-.152.122-.283.163-.134.044-.312.076-.53.102-.223.026-.506.04-.852.04-.336 0-.613-.014-.84-.04-.228-.025-.404-.058-.537-.102-.133-.04-.23-.096-.285-.163-.057-.066-.086-.142-.086-.226V.93c0-.084.03-.158.086-.225.058-.067.152-.122.293-.164.137-.04.316-.075.535-.1.222-.025.5-.037.835-.037.346 0 .63.01.852.037.22.024.396.06.53.1.13.044.226.098.284.165.058.067.085.142.085.226v15.377z"/><path fill="#888" d="M77.186 16.307c0 .084-.027.158-.072.226-.05.067-.14.122-.266.163-.13.044-.3.076-.515.102-.21.026-.48.04-.806.04-.32 0-.584-.014-.795-.04-.215-.025-.38-.058-.504-.102-.125-.04-.213-.096-.266-.163-.054-.066-.082-.142-.082-.226V3.057h-.023l-4.97 13.237c-.036.106-.094.198-.175.27-.08.07-.188.126-.324.17-.14.042-.31.068-.523.08-.213.013-.467.022-.768.022-.303 0-.558-.01-.77-.032-.21-.02-.386-.054-.522-.1-.14-.048-.246-.104-.326-.172-.08-.066-.134-.147-.157-.237l-4.8-13.238h-.025v13.25c0 .084-.02.158-.072.226-.05.067-.138.122-.27.163-.134.044-.304.076-.513.102-.207.026-.478.04-.804.04-.316 0-.582-.014-.794-.04-.21-.025-.383-.058-.51-.102-.13-.04-.22-.096-.267-.163-.05-.066-.075-.142-.075-.226V1.797c0-.427.12-.754.36-.98.237-.227.554-.34.953-.34h2.28c.406 0 .755.032 1.047.094.29.065.543.17.754.316.21.147.388.34.53.58.144.238.267.534.372.887l3.712 9.702h.053L71.1 2.377c.115-.352.242-.65.38-.894.136-.242.294-.44.475-.59.185-.152.397-.258.646-.322.25-.06.534-.093.863-.093h2.343c.24 0 .446.03.62.086.17.06.312.146.423.26.107.113.192.25.25.415.06.164.087.35.087.56v14.51z"/><path fill="#9CD949" d="M49.342 16.21c.026.173-.008.308-.105.397-.096.088-.27.142-.518.162-.247.02-.588.028-1.024.028-.447 0-.8-.006-1.053-.017-.248-.012-.44-.038-.576-.076-.13-.036-.224-.09-.277-.158-.055-.066-.098-.154-.13-.26l-1.155-3.273L41.27 3.55l-3.207 9.462-1.086 3.182c-.035.12-.083.22-.14.298-.057.08-.15.143-.278.19-.13.043-.31.074-.546.094-.234.016-.54.023-.92.023-.407 0-.726-.014-.955-.036-.23-.025-.39-.088-.478-.184s-.12-.232-.093-.408c.026-.177.092-.412.198-.705l5.29-14.444c.05-.143.113-.258.185-.346.072-.087.183-.156.337-.202.154-.047.37-.077.645-.088.275-.014.635-.02 1.086-.02.52 0 .936.006 1.247.02.31.01.55.04.72.088.175.046.3.114.372.207.077.093.14.22.19.378l5.305 14.43c.104.303.17.544.197.72z"/><circle fill="#888" cx="41.418" cy="14.296" r="2.418"/></svg><svg viewBox="290.4 356.7 47.6 31" enable-background="new 290.4 356.7 47.6 31" width="47.6" height="31" id="twitter" y="620"><path fill="#828282" d="M335 368.1c-1.5.1-3 .1-4.5 0 1.8-.4 3.3-1.6 4.3-3.1-1.6.4-3.4.6-5.1.4-.9-1.8-2.5-3.3-4.6-3.7-4.6-1.3-9.4 1.9-9.6 6.9-6-1.9-10.5-6.4-12.9-11.8-2.8 2.7-3.1 7.3-.4 10.3-1.2-.4-2.2-1-3-1.8-1 3.3.4 7.2 3.7 8.8-1 0-2.2-.3-3.3-.7.1 3.1 2.2 6 5.4 7-3.7 1.5-7.9 1.5-11.7 0 2.7 3 6.1 5.2 10.2 6.4 13.5 3.9 24.4-5.4 26.8-15.9 1.8-.7 3.3-1.6 4.7-2.8z"/></svg><svg viewBox="290.4 356.7 47.6 31" enable-background="new 290.4 356.7 47.6 31" width="47.6" height="31" id="twitter-share" y="651"><path fill="#ccc" d="M335 368.1c-1.5.1-3 .1-4.5 0 1.8-.4 3.3-1.6 4.3-3.1-1.6.4-3.4.6-5.1.4-.9-1.8-2.5-3.3-4.6-3.7-4.6-1.3-9.4 1.9-9.6 6.9-6-1.9-10.5-6.4-12.9-11.8-2.8 2.7-3.1 7.3-.4 10.3-1.2-.4-2.2-1-3-1.8-1 3.3.4 7.2 3.7 8.8-1 0-2.2-.3-3.3-.7.1 3.1 2.2 6 5.4 7-3.7 1.5-7.9 1.5-11.7 0 2.7 3 6.1 5.2 10.2 6.4 13.5 3.9 24.4-5.4 26.8-15.9 1.8-.7 3.3-1.6 4.7-2.8z"/></svg><svg viewBox="290.2 391.1 42.1 31" enable-background="new 290.2 391.1 42.1 31" width="42.1" height="31" id="vimeo" y="682"><path fill="#828282" d="M329.2 398.2c-.1 3.5-2.5 8.4-7.4 14.4-5 6.4-9.1 9.5-12.5 9.5-2.1 0-3.8-2-5.4-5.8-1-3.5-2-7.1-3-10.6-1.1-3.8-2.3-5.8-3.4-5.8-.3 0-1.3.6-2.8 1.7l-1.7-2.1c1.8-1.6 3.5-3.1 5.2-4.7 2.4-2 4.1-3.1 5.4-3.3 2.8-.3 4.5 1.7 5.2 5.8.7 4.4 1.1 7.2 1.4 8.2.8 3.7 1.7 5.5 2.7 5.5.7 0 1.8-1.1 3.4-3.5 1.6-2.4 2.3-4.2 2.4-5.4.3-2.1-.6-3.1-2.4-3.1-.8 0-1.7.1-2.7.6 1.7-5.8 5.1-8.6 10.2-8.5 3.9 0 5.7 2.4 5.4 7.1z"/></svg><svg viewBox="329.4 389.5 32.9 31" enable-background="new 329.4 389.5 32.9 31" width="32.9" height="31" id="youtube" y="713"><path fill="#828282" d="M336.3 389.5h1.8l1.3 4.8 1.1-4.8h1.8l-2.2 7.1v4.8h-1.8v-4.8l-2-7.1zm6.2 9.8c0 1.6.8 2.4 2.4 2.4 1.3 0 2.4-.9 2.4-2.4v-4.4c0-1.4-1-2.4-2.4-2.4-1.5 0-2.4.9-2.4 2.4v4.4zm1.6-4.2c0-.5.2-.8.7-.8s.7.3.7.8v4.1c0 .5-.2.8-.7.8-.5 0-.7-.3-.7-.8v-4.1zm7.6-2.5v6.7c-.2.2-.7.7-.9.7-.3 0-.5-.2-.5-.6v-6.8h-1.6v7.3c0 .9.2 1.6 1.1 1.6.5 0 1.1-.2 2-1.1v.9h1.6v-8.8h-1.7v.1zm-2.4 18.1c.1.1.1.3.1.7v4.4c0 .2 0 .5-.1.6-.1.2-.6.2-.8.1-.1-.1-.2-.1-.3-.3v-5.3c.1-.1.2-.2.3-.2.2-.3.5-.2.8 0zm5.1-.2c-.6 0-.7.5-.7 1v.8h1.4v-.8c0-.5-.1-1-.7-1zm4.8 6.2c0 2.1-1.7 3.8-3.8 3.8h-19.3c-2.1 0-3.8-1.7-3.8-3.8v-9.5c0-2.1 1.7-3.8 3.8-3.8h19.3c2.1 0 3.8 1.7 3.8 3.8v9.5zm-20.5-8.7h1.8v-1.6h-5.4v1.6h1.8v9.8h1.7l.1-9.8zm6.3 1.2h-1.6v6.4c-.2.2-.6.6-.9.6-.3 0-.5-.2-.5-.6v-6.4h-1.6v7c0 1.7 1.1 1.7 2 1.3.3-.2.6-.5.9-.8v.9h1.6v-8.4h.1zm6 2.1c0-1.1-.3-2.1-1.5-2.1-.6 0-1 .3-1.4.8v-3.7h-1.6v11.4h1.6v-.7c.5.6.9.8 1.5.8 1 0 1.4-.8 1.4-1.8v-4.7zm5.7.2c0-1.5-.7-2.5-2.2-2.5-1.4 0-2.4 1-2.4 2.5v3.8c0 1.5.8 2.6 2.3 2.6 1.6 0 2.3-1 2.3-2.6v-.6h-1.6v.6c0 .7 0 1.1-.7 1.1-.6 0-.7-.6-.7-1.1v-1.6h3v-2.2z"/></svg></svg>